PathFileType	4	(X/Y/Z)	C:/Users/beibeiliu/ov580/test_trc/capture2\sequence.33_training_dense_right.trc
DataRate	CameraRate	NumFrames	NumMarkers	Units	OrigDataRate	OrigDataStartFrame	OrigNumFrames
120	120	24	19	mm	120	295	336
Frame#	Time	ThumbCMC			ThumbMCP			ThumbIP			ThumbTip			IndexMCP			IndexPIP			IndexTip			MiddleMCP			MiddlePIP			MiddleTip			RingMCP			RingPIP			RingTip			PinkyMCP			PinkyPIP			PinkyTip			BackHand1			BackHand2			BackHand3	
		X0	Y0	Z0	X1	Y1	Z1	X2	Y2	Z2	X3	Y3	Z3	X4	Y4	Z4	X5	Y5	Z5	X6	Y6	Z6	X7	Y7	Z7	X8	Y8	Z8	X9	Y9	Z9	X10	Y10	Z10	X11	Y11	Z11	X12	Y12	Z12	X13	Y13	Z13	X14	Y14	Z14	X15	Y15	Z15	X16	Y16	Z16	X17	Y17	Z17	X18	Y18	Z18	
294	2.45	86.2922	7.88634	94.3547	65.2265	14.175	69.9339	56.4281	19.5677	47.679	54.3275	19.3072	18.7949	125.297	15.6812	31.9835	115.738	22.3181	0.379034	94.1831	18.5212	-14.3767	130.166	-4.34876	21.3602	111.702	-2.72681	-8.32687	79.9087	-5.12152	-17.3231	119.571	-21.225	21.2744	89.3414	-22.2745	3.75052	63.258	-18.7283	21.7148	108.714	-44.9115	26.4182	77.363	-39.3245	27.0353	70.4412	-26.7323	55.1364	134.336	-34.0505	72.4647	124.634	-39.8443	105.372	125.692	-6.98795	95.8052	
295	2.45833	85.4322	8.20086	97.4899	66.4215	12.7602	68.9916	56.8303	20.2413	45.1539	55.2203	18.4561	18.1288	125.051	17.5501	33.3683	116.418	21.2001	0.671637	92.4592	16.9941	-16.4525	129.141	-2.58706	23.5218	115.546	-1.34583	-6.05411	82.281	-4.45054	-16.7288	118.522	-22.6439	18.9311	91.7787	-22.9022	3.60091	63.1012	-23.5802	20.3438	105.15	-41.8229	24.5532	77.2765	-37.4487	28.0172	71.0806	-28.2287	53.7435	131.132	-34.5025	73.739	126.176	-41.2162	101.161	124.99	-4.48429	93.6095	
296	2.46667	87.7602	6.05062	93.9849	67.3946	10.3801	67.2741	55.7117	21.8755	41.4848	54.8421	18.9815	16.4496	124.988	16.9184	32.5313	119.174	19.4221	3.09781	93.037	15.9583	-16.8176	129.866	-6.12707	19.7819	114.56	-2.43734	-7.46935	81.7282	-5.76497	-18.9595	117.644	-22.347	16.4168	89.1616	-20.2607	3.14523	64.3453	-21.1871	18.4604	105.642	-42.5473	23.6613	77.8993	-41.244	25.9672	68.8558	-29.7375	58.7109	130.525	-35.9737	73.872	125.869	-44.8358	99.5975	125.537	-5.66145	94.7284	
297	2.475	87.2342	5.20694	94.9701	66.2511	12.6218	66.0421	55.192	20.8246	43.4999	52.7362	19.6085	16.0782	126.923	15.0356	28.1565	119.198	20.2115	3.47754	92.4024	17.2393	-18.9962	130.376	-6.27379	17.0215	112.69	-0.760903	-10.7807	83.9107	-8.66846	-19.9292	118.699	-24.4893	17.9393	90.7284	-21.6175	1.44288	61.3835	-23.0834	18.5303	107.364	-43.8636	25.7019	77.2607	-39.597	24.9321	68.6737	-30.8255	52.5978	132.417	-37.6713	72.2153	125.211	-39.7204	100.704	126.077	-5.88245	94.2158	
298	2.48333	86.9936	7.74409	94.297	66.8452	12.1699	65.6757	57.0359	18.3608	41.5336	52.2661	21.5706	16.882	125.892	14.4497	28.3615	116.509	22.5964	-2.45069	94.5933	16.6408	-18.5341	129.591	-5.25722	18.1673	114.128	-0.85984	-11.101	82.6677	-2.46651	-21.5546	116.83	-23.7821	15.4414	92.3693	-23.9982	0.67182	60.7486	-20.4327	18.7333	105.539	-45.3009	21.9379	79.2046	-36.4384	21.8597	69.3332	-28.1033	49.927	132.144	-37.6435	68.2894	124.687	-42.4594	101.973	124.605	-10.1162	89.5343	
299	2.49167	87.2296	6.2699	90.4242	65.4902	15.2687	60.5833	55.1531	19.9134	41.2114	51.388	20.6568	12.7868	125.495	15.4086	27.1351	119.015	19.8818	-1.75465	95.1378	15.3758	-21.5127	129.815	-4.80084	12.6149	115.998	-4.21721	-12.3871	85.0801	-4.96088	-24.4477	117.062	-23.6977	11.9658	89.4624	-22.8265	-1.66705	61.7187	-21.1004	15.9294	107.949	-44.7095	23.3998	77.3706	-35.4807	21.4421	70.4274	-27.8027	51.9824	132.443	-36.08	69.9708	125.838	-43.8969	95.7858	124.344	-6.40612	88.5957	
300	2.5	88.1958	6.94071	86.4344	64.1541	15.827	59.9008	54.4206	24.152	33.5588	52.0091	21.3771	12.4622	126.748	16.3545	20.6573	118.313	20.5853	-6.85399	93.1842	17.5438	-26.6056	130.227	-3.04344	10.7421	117.388	0.76001	-15.1171	83.7779	-6.58214	-28.0405	117.753	-24.6337	9.96754	90.3843	-22.6845	-5.92024	64.0096	-18.6834	11.4378	105.362	-43.277	15.1314	74.6828	-36.9618	18.9662	68.6798	-28.4818	45.7297	132.784	-32.5462	62.7051	126.123	-39.3173	92.3901	125.013	-4.38972	84.1883	
301	2.50833	85.1888	12.9344	83.1311	65.1064	15.226	53.7609	52.7748	24.8859	30.9909	52.9043	21.0175	3.69789	125.811	19.1259	16.3485	116.629	22.8756	-12.2616	92.3924	16.8159	-31.739	129.735	-2.76682	3.50048	114.466	1.10436	-22.4604	81.058	-4.32059	-33.5741	114.697	-21.2578	3.43618	89.6736	-19.967	-9.57942	61.6344	-16.0491	11.3188	105.224	-37.8733	11.7851	77.8718	-36.7844	12.4946	68.3769	-27.41	46.6051	130.849	-32.8225	59.9403	125.952	-39.077	91.0145	125.212	-5.70948	75.4368	
302	2.51667	85.6553	10.935	74.8525	64.9394	15.1867	48.5223	53.7291	24.4217	24.6467	51.6665	20.8802	1.95182	123.561	21.593	12.6463	115.09	22.1157	-18.8471	90.0869	18.4207	-37.4348	127.267	0.0426873	2.2915	112.941	0.734467	-28.2842	80.9199	-2.73643	-40.4213	115.085	-21.9806	-3.34844	86.3916	-21.7494	-14.4954	60.321	-20.0384	6.25427	105.359	-37.8488	6.24292	75.2013	-35.8902	8.21371	68.2358	-28.0853	38.2105	131.401	-27.4116	52.8933	124.097	-35.3431	86.3179	124.421	-2.17387	70.7555	
303	2.525	83.2247	14.7476	69.3447	63.2607	17.6529	39.9985	50.7646	27.1385	16.4041	47.2476	25.67	-5.26111	122.862	20.983	6.13682	114.116	27.6789	-24.7515	93.038	21.6711	-42.3141	127.238	0.676207	-7.89573	110.322	7.01885	-35.5107	80.9874	1.42565	-45.4481	115.565	-19.2933	-4.9244	85.6558	-20.6471	-21.8757	59.0479	-16.8692	-0.442982	103.36	-38.4428	-2.53253	76.0018	-34.4317	0.713887	67.2213	-21.5531	31.6375	129.395	-25.0297	44.9389	122.973	-32.726	76.7675	121.483	2.02715	66.2548	
304	2.53333	82.7188	14.2725	61.2597	62.8895	18.3976	33.5365	53.4369	25.5431	9.73792	48.8908	25.4312	-12.3649	121.907	26.7949	-4.03539	114.099	28.9167	-29.6349	87.582	20.8265	-48.6048	125.414	5.87072	-13.7049	109.725	6.84348	-40.6242	74.2857	5.89274	-51.4044	112.51	-14.2616	-15.5038	82.4904	-14.5882	-28.203	59.7671	-14.3015	-8.63954	102.814	-36.619	-9.30464	75.6763	-31.6145	-7.65036	66.7113	-26.2903	23.3183	128.524	-25.0775	38.3932	122.73	-32.2444	67.946	122.085	4.04431	61.2562	
305	2.54167	80.7817	16.1228	54.5908	60.0727	19.3612	29.1663	52.6788	27.4273	0.418866	49.5908	26.5268	-23.4464	119.43	26.5093	-8.98145	110.913	31.671	-36.9411	84.9537	25.3915	-54.2855	122.908	7.21931	-18.4898	103.909	11.4074	-47.6872	72.2386	8.44801	-54.065	110.513	-12.9793	-24.0646	85.2773	-11.2168	-36.1024	58.3691	-9.3863	-14.7887	102.478	-36.0322	-14.1621	70.722	-28.5073	-12.384	68.2175	-19.6072	14.1241	125.78	-25.6376	33.6138	121.054	-34.0989	60.0257	118.529	4.65128	53.4558	
306	2.55	78.262	20.4372	45.1585	56.5292	23.5232	18.36	47.1866	32.1053	-7.72026	46.1538	27.9177	-30.0288	117.257	32.8782	-20.3777	105.882	31.8675	-46.0782	78.6085	25.1648	-59.8717	119.995	9.13645	-29.2785	98.6118	14.6247	-55.6588	66.8422	8.59242	-57.8352	109.092	-10.7804	-29.8252	81.5443	-8.25511	-42.9367	55.3476	-9.91565	-19.9053	100.078	-28.4201	-24.1908	72.133	-26.3465	-24.3874	66.41	-17.2626	10.5298	123.132	-21.7746	26.1318	115.677	-32.874	54.0362	117.186	3.33739	41.588	
307	2.55833	75.3248	20.9192	35.136	55.7284	22.5575	7.53357	46.3658	30.4775	-15.7781	44.417	29.0655	-45.892	113.835	29.0776	-31.3374	97.625	36.9904	-57.0195	72.0007	30.4148	-65.2057	116.384	12.4574	-39.6555	93.768	14.6734	-63.9732	61.6327	10.9392	-63.1568	106.659	-11.8591	-40.9813	78.5505	-5.73119	-51.105	53.9422	-5.79784	-26.4672	96.6196	-31.1229	-33.3715	67.8131	-22.6597	-30.5746	65.7638	-12.648	-0.649108	120.081	-22.3522	13.6271	113.03	-25.2922	41.902	115.001	7.15201	33.7071	
308	2.56667	73.0697	20.5382	24.2451	51.4092	23.4252	0.52654	41.8713	29.9974	-25.2699	41.9819	26.0907	-53.2206	109.946	29.9019	-38.7725	93.6097	31.9665	-67.0006	69.5246	26.9005	-74.432	112.756	9.34935	-50.7253	94.0112	11.1148	-72.383	57.5873	8.61493	-69.8318	102.969	-11.2915	-51.6583	75.1988	-10.5599	-61.3001	53.0134	-4.48336	-38.3712	95.9712	-28.0493	-38.7991	65.7586	-23.6663	-41.7188	61.9795	-12.2042	-8.55087	117.096	-20.5661	4.72755	111.395	-26.2128	32.7444	109.766	8.76563	23.8483	
309	2.575	69.7328	21.0332	14.4675	48.2438	25.3333	-15.5426	37.6048	31.1379	-40.8985	38.1033	23.3439	-62.5501	106.898	33.2902	-50.1854	95.2814	32.2913	-76.3994	66.4141	25.5741	-85.9704	112.156	6.43508	-56.2833	90.3497	7.71368	-85.1198	57.5156	4.98534	-82.8787	99.2734	-11.6823	-61.3184	71.8021	-12.6753	-71.9701	47.6625	-8.34298	-46.2672	90.1386	-32.4678	-50.4437	63.1068	-25.8142	-52.6818	55.6324	-13.5522	-21.9185	114.128	-19.8234	-0.477378	107.798	-28.2392	26.2999	109.26	7.34534	12.7997	
310	2.58333	65.8013	23.4552	1.86409	45.7856	20.9966	-23.489	31.8011	29.6903	-46.2509	31.5913	22.0229	-72.2593	105.919	29.4806	-61.4594	97.3501	30.3824	-87.1314	72.0016	22.3899	-101.419	110.608	3.07562	-66.9838	96.5536	1.591	-95.3383	61.4741	3.43039	-102.652	98.6068	-19.8569	-67.0186	68.6434	-13.702	-80.9859	45.4645	-8.58764	-58.6478	86.9744	-37.2627	-60.4427	59.4773	-25.3269	-60.0785	52.6646	-14.2781	-30.5351	112.476	-20.3038	-12.4555	103.581	-25.4606	17.0852	104.682	7.56373	1.817	
311	2.59167	64.3665	21.0884	-8.32002	40.3385	21.7825	-29.4429	29.5807	24.848	-53.3975	22.1034	21.3352	-78.8862	104.871	23.3143	-70.5638	99.11	26.3516	-97.7738	74.4743	21.1123	-121.145	110.128	0.148306	-77.9484	100.573	-4.519	-106.626	71.4801	-6.66404	-122.31	94.3999	-21.8297	-75.975	64.6326	-22.8781	-91.3836	39.8471	-15.6435	-70.1701	84.6177	-43.6056	-64.3221	54.1008	-36.7572	-68.2726	47.6097	-16.9768	-43.047	107.504	-23.6389	-21.0073	102.493	-26.915	7.55728	101.416	5.46268	-7.18425	
312	2.6	60.591	20.6768	-17.5744	37.1542	19.8032	-40.3384	21.9404	24.334	-64.9093	16.3134	16.2815	-88.9729	101.58	21.1714	-82.2348	99.1992	20.1607	-110.761	87.3481	15.297	-132.903	108.523	-6.72296	-85.9561	102.518	-11.4871	-116.595	80.0285	-17.5808	-138.136	91.2109	-31.0342	-87.5797	64.7258	-31.7847	-100.18	34.9726	-23.6289	-83.445	80.5873	-46.2103	-74.2821	52.5875	-39.5891	-75.5129	41.0483	-24.2149	-47.3259	108.189	-29.4206	-28.3611	100.93	-23.6062	-2.2653	101.191	7.5211	-19.0585	
313	2.60833	60.1939	16.8295	-29.9357	32.991	18.3945	-48.4426	18.7342	21.0235	-71.7333	9.08802	15.9799	-95.3043	99.2597	10.4576	-89.9153	97.3736	15.9978	-119.356	92.0554	9.65106	-143.436	107.456	-18.8971	-94.1263	102.251	-23.2231	-122.911	86.2436	-28.624	-149.075	90.7375	-40.2964	-90.0047	63.4919	-42.6585	-107.855	33.3963	-35.3563	-95.6935	77.953	-54.3107	-79.3415	49.3365	-45.8242	-82.3011	34.9675	-32.6173	-57.9323	104.629	-30.357	-39.2114	99.6365	-30.056	-4.37966	98.5625	1.19808	-26.9405	
314	2.61667	57.6191	17.6142	-34.3501	33.2875	12.4571	-54.2988	18.6661	12.1847	-82.2981	8.30591	8.545	-102.507	97.853	5.9295	-100.762	96.8276	7.22703	-125.063	91.8241	-1.08559	-150.843	104.511	-22.9629	-100.905	99.2126	-29.5824	-132.306	85.7631	-41.1781	-153.408	87.4267	-45.6341	-97.369	62.4443	-47.252	-113.166	30.3255	-39.5107	-102.075	78.3563	-57.4144	-81.6844	48.896	-53.4893	-87.6737	34.2746	-33.9095	-67.8842	103.536	-37.6348	-44.7082	97.4997	-28.1451	-14.8354	96.486	0.1555	-34.9186	
315	2.625	58.5023	11.376	-39.3011	32.7983	8.22843	-60.5031	18.9798	6.87714	-85.5871	6.93811	4.3835	-107.624	96.2801	-2.44504	-104.75	95.869	-5.36921	-129.907	86.3366	-11.1833	-160.08	101.944	-26.9906	-104.657	96.3515	-38.7234	-135.646	77.8714	-44.1102	-157.299	85.404	-52.3857	-103.545	60.9471	-54.5286	-116.419	28.7076	-44.1323	-104.428	74.457	-64.941	-88.4629	47.1118	-57.5727	-90.2723	33.8605	-38.1749	-65.5017	103.236	-39.4142	-49.6758	96.7414	-32.9005	-17.5551	98.261	-4.60026	-41.5967	
316	2.63333	58.1156	9.48597	-43.797	34.6729	1.96216	-68.0801	20	3.70907	-89.2115	11.1223	-4.74739	-114.388	95.3874	-4.94009	-111.557	90.8555	-10.0706	-138.969	77.3172	-23.3397	-159.734	99.6799	-29.4634	-111.155	92.7804	-40.5569	-136.598	66.2639	-51.7239	-156.329	83.9574	-52.8787	-105.621	56.883	-59.2098	-118.628	26.7457	-50.4731	-101.051	73.1772	-67.4769	-90.9244	47.1291	-63.559	-93.0793	34.4071	-41.6832	-67.0481	102.052	-41.5398	-48.4391	98.5534	-34.9218	-18.0794	96.9364	-5.05477	-45.9809	
317	2.64167	58.2048	5.09748	-49.5392	34.24	1.59177	-74.6199	21.6395	-1.37557	-100.095	20.4758	-15.4451	-117.689	96.9241	-10.3327	-112.57	91.3699	-17.3614	-138.203	70.8957	-27.7935	-155.963	99.9978	-35.6118	-115.363	85.8425	-46.7632	-139.486	54.2278	-52.6161	-151.187	85.5196	-52.0275	-104.58	53.851	-59.7778	-118.503	29.75	-47.0178	-98.2821	74.6741	-70.7236	-91.273	45.9647	-63.3127	-93.4839	39.7749	-41.1797	-71.1939	103.871	-46.633	-54.4562	99.2616	-39.3714	-22.7009	96.2961	-9.66596	-48.2642	
